<?xml version="1.0" encoding="UTF-8" standalone="no"?>
<svg
   width="678.62"
   height="609.15198"
   viewBox="0 0 678.62 609.15198"
   version="1.1"
   id="svg44"
   sodipodi:docname="03615ab14efd9c261985b4bf656ea02c.svg"
   xmlns:inkscape="http://www.inkscape.org/namespaces/inkscape"
   xmlns:sodipodi="http://sodipodi.sourceforge.net/DTD/sodipodi-0.dtd"
   xmlns="http://www.w3.org/2000/svg"
   xmlns:svg="http://www.w3.org/2000/svg">
  <defs
     id="defs48" />
  <sodipodi:namedview
     id="namedview46"
     pagecolor="#ffffff"
     bordercolor="#666666"
     borderopacity="1.0"
     inkscape:pageshadow="2"
     inkscape:pageopacity="0.0"
     inkscape:pagecheckerboard="0" />
  <path
     d="M 423.24993,609.15198 H 223.69056 c -26.00248,0 -47.15726,-21.1545 -47.15726,-47.15726 V 47.15726 C 176.5333,21.1545 197.68808,0 223.69056,0 h 199.55937 c 26.00276,0 47.15726,21.1545 47.15726,47.15726 v 514.83746 c 0,26.00276 -21.1545,47.15726 -47.15726,47.15726 z"
     fill="#2f2e41"
     stroke-width="0"
     id="path2" />
  <path
     d="M 423.45331,596.42516 H 223.48719 c -19.51083,0 -35.38405,-15.8735 -35.38405,-35.38405 V 45.21841 c 0,-19.51054 15.87322,-35.38405 35.38405,-35.38405 h 199.96612 c 19.51054,0 35.38405,15.8735 35.38405,35.38405 v 515.82271 c 0,19.51054 -15.8735,35.38405 -35.38405,35.38405 z"
     fill="#ffffff"
     stroke-width="0"
     id="path4" />
  <path
     d="M 354.70881,43.38689 H 291.0747 c -7.33651,0 -13.30531,-5.96852 -13.30531,-13.30531 0,-7.33679 5.9688,-13.30531 13.30531,-13.30531 h 63.63411 c 7.33679,0 13.30531,5.96852 13.30531,13.30531 0,7.33679 -5.96852,13.30531 -13.30531,13.30531 z"
     fill="#2f2e41"
     stroke-width="0"
     id="path6" />
  <path
     d="M 403.43203,187.75405 H 236.6437 c -6.39966,0 -11.60596,-5.20703 -11.60596,-11.60645 v -66.28809 c 0,-6.39941 5.2063,-11.60547 11.60596,-11.60547 h 166.78833 c 6.39941,0 11.60571,5.20605 11.60571,11.60547 v 66.28809 c 0,6.39941 -5.2063,11.60645 -11.60571,11.60645 z"
     fill="#6c63ff"
     stroke-width="0"
     id="path8" />
  <path
     d="M 403.43203,390.75405 H 236.6437 c -6.39966,0 -11.60596,-5.20703 -11.60596,-11.60645 v -66.28809 c 0,-6.39941 5.2063,-11.60547 11.60596,-11.60547 h 166.78833 c 6.39941,0 11.60571,5.20605 11.60571,11.60547 v 66.28809 c 0,6.39941 -5.2063,11.60645 -11.60571,11.60645 z"
     fill="#d8d8d8"
     stroke-width="0"
     id="path10" />
  <path
     d="m 402.44155,288.07046 h -65.57031 c -6.73535,0 -12.21484,-5.47949 -12.21484,-12.21484 v -63.57031 c 0,-6.73535 5.47949,-12.21484 12.21484,-12.21484 h 65.57031 c 6.73535,0 12.21484,5.47949 12.21484,12.21484 v 63.57031 c 0,6.73535 -5.47949,12.21484 -12.21484,12.21484 z"
     fill="#d8d8d8"
     stroke-width="0"
     id="path12" />
  <path
     d="m 302.44155,288.07046 h -65.57031 c -6.73535,0 -12.21484,-5.47949 -12.21484,-12.21484 v -63.57031 c 0,-6.73535 5.47949,-12.21484 12.21484,-12.21484 h 65.57031 c 6.73535,0 12.21484,5.47949 12.21484,12.21484 v 63.57031 c 0,6.73535 -5.47949,12.21484 -12.21484,12.21484 z"
     fill="#d8d8d8"
     stroke-width="0"
     id="path14" />
  <path
     d="m 499.15135,148.95547 -4.20999,10.53 c 0,0 -3.88,14.74 0.67001,20.62 4.54001,5.87 5.54999,50.88 0.67001,54.2 -4.88,3.33 61.85001,-30.81999 61.85001,-30.81999 0,0 -26.04999,-60.41 -26.48999,-60.63 -0.44,-0.22 -17.51001,-5.54 -17.51001,-5.54 l -14.95999,11.64 h -0.0201 z"
     fill="#2f2e43"
     stroke-width="0"
     id="path16" />
  <polygon
     points="520.24134,176.17547 540.53135,176.17547 542.60136,201.00548 520.24134,208.35547 "
     fill="#f2a2a5"
     stroke-width="0"
     id="polygon18" />
  <path
     id="uuid-4b95b5b1-38e0-4a6b-a87e-620e87f12b50-33"
     d="m 471.26136,383.71547 c -1.20999,7.37 -6.13,12.66 -10.98001,11.81 -4.85001,-0.85 -7.81,-7.51999 -6.59,-14.89999 0.44,-2.95001 1.60999,-5.75 3.41,-8.14001 l 5.54001,-31.17001 15.07999,3.16 -7.07001,30.38998 c 0.92999,2.88 1.14001,5.91 0.60999,8.85001 v 0 l 3e-5,3e-5 z"
     fill="#f2a2a5"
     stroke-width="0" />
  <rect
     x="513.26135"
     y="561.29547"
     width="20.940001"
     height="29.71002"
     fill="#f2a2a5"
     stroke-width="0"
     id="rect21" />
  <path
     d="m 492.86134,608.9955 c -2.20001,0 -4.16,-0.05 -5.64001,-0.19 -5.56,-0.51001 -10.87,-4.62 -13.54001,-7.02002 -1.20001,-1.08002 -1.57999,-2.79999 -0.95999,-4.28003 v 0 c 0.45001,-1.06 1.34,-1.85999 2.45001,-2.16998 l 14.70001,-4.20001 23.79999,-16.06 0.26999,0.47998 c 0.10001,0.17999 2.44,4.39001 3.22,7.22998 0.29999,1.08002 0.22,1.97998 -0.23001,2.67999 -0.31,0.47998 -0.75,0.76001 -1.10001,0.91998 0.42999,0.45001 1.78,1.37 5.94,2.03003 6.07001,0.96002 7.35001,-5.33002 7.39999,-5.59003 l 0.04,-0.21002 0.17999,-0.12 c 2.89001,-1.85999 4.67001,-2.71002 5.28,-2.53003 0.38,0.10999 1.01999,0.31 2.75,17.44 0.17001,0.53998 1.38,4.47998 0.56,8.25 -0.89001,4.09998 -18.81,2.69 -22.39999,2.37 -0.10001,0.01 -13.51999,0.96997 -22.70999,0.96997 v 0 l -0.01,1.8e-4 z"
     fill="#2f2e43"
     stroke-width="0"
     id="path23" />
  <rect
     x="198.25444"
     y="770.70325"
     width="20.940001"
     height="29.70999"
     transform="rotate(-31.95)"
     fill="#f2a2a5"
     stroke-width="0"
     id="rect25" />
  <path
     d="m 570.23137,604.91548 c -2.45999,0 -4.72,-0.29999 -6.32999,-0.58002 -1.57999,-0.28003 -2.82001,-1.53998 -3.07999,-3.12 v 0 c -0.17999,-1.14001 0.14999,-2.28998 0.92999,-3.14001 l 10.25,-11.34003 11.70001,-26.22 0.48001,0.26001 c 0.17999,0.10001 4.39001,2.42999 6.56,4.42999 0.82999,0.75998 1.23999,1.56998 1.22,2.39999 -0.01,0.58002 -0.23001,1.03998 -0.45001,1.37 0.60001,0.15997 2.23001,0.21997 6.10999,-1.41998 5.66,-2.39001 3.42001,-8.41 3.32001,-8.66 l -0.08,-0.20001 0.09,-0.19 c 1.47,-3.10999 2.51999,-4.76999 3.14001,-4.94 0.39001,-0.10999 1.03,-0.28 11.56,13.35001 0.42999,0.35999 3.54001,3.07001 4.84,6.70001 1.41,3.95001 -14.54001,12.23999 -17.75,13.85999 -0.10001,0.08 -16.79001,12.21002 -23.64999,15.65997 -2.72,1.37 -5.94,1.78998 -8.87,1.78998 v 0 l 0.01,-0.01 z"
     fill="#2f2e43"
     stroke-width="0"
     id="path27" />
  <path
     d="m 549.62135,312.84547 h -58.63 l -5.32001,54.54001 23.28,201.51999 h 29.92999 l -11.97,-116.39001 48.54999,105.08002 26.60001,-18.62 -37.91,-98.10001 c 0,0 13.54001,-85.45999 2.89999,-106.75 -10.64001,-21.28 -17.42999,-21.28 -17.42999,-21.28 h 3e-5 z"
     fill="#2f2e43"
     stroke-width="0"
     id="path29" />
  <polygon
     points="513.60136,195.79547 554.17137,195.79547 578.78135,316.17546 477.02134,316.17546 "
     fill="#d6d6d7"
     stroke-width="0"
     id="polygon31" />
  <path
     d="m 520.00135,195.81547 c 0,0 -25.26999,-0.67 -27.92999,5.99001 -2.66,6.64999 -33.92001,164.94002 -33.92001,164.94002 h 20.62 l 41.23999,-170.92999 v 0 l -0.01,-3e-5 z"
     fill="#d6d6d7"
     stroke-width="0"
     id="path33" />
  <circle
     cx="523.01135"
     cy="162.80547"
     r="22.280001"
     fill="#f2a2a5"
     stroke-width="0"
     id="circle35" />
  <path
     d="m 527.33134,128.18547 c 0,0 26.82001,-6.87 35.03,28.82 0,0 0.22,9.31 4.88,13.08 4.66,3.77 3.10001,23.28001 3.10001,23.28001 0,0 8.87,14.63 1.32999,21.28 0,0 -3.32999,13.52 1.54999,21.28 4.88,7.75999 23.28,50.44 -7.32001,53.03999 0,0 -15.51999,-9.37 -8.20001,-37.3 7.31998,-27.93 -0.89001,-43.36 -0.89001,-43.36 0,0 -23.5,-8.52 -22.17001,-26.7 1.32999,-18.18 -15.07999,-36.14 -16.17999,-35.91 -1.1,0.23 -12.64001,-6.43 -17.73999,13.97 l -5.45999,-0.93 c 0,0 -2.29999,-34.32 32.07001,-30.55 h 3e-5 z"
     fill="#2f2e43"
     stroke-width="0"
     id="path37" />
  <path
     id="uuid-9a3ba102-cbb7-416d-9502-ea03e1bf6bf2-34"
     d="m 596.15135,380.13548 c 1.48999,7.32001 -1.23999,14.01001 -6.07999,14.94 -4.84,0.92999 -9.97,-4.26001 -11.45001,-11.57999 -0.63,-2.92001 -0.53,-5.94 0.29001,-8.82001 l -5.89001,-31.10999 15.22,-2.41 4.19,30.92001 c 1.89001,2.35999 3.16,5.12 3.72,8.06 v 0 -3e-5 z"
     fill="#f2a2a5"
     stroke-width="0" />
  <path
     d="m 536.45137,195.95547 c 0,0 22.26001,-2.82001 24.92001,3.83 2.66,6.64999 33.91998,164.94 33.91998,164.94 h -20.62 l -38.22,-168.77 z"
     fill="#d6d6d7"
     stroke-width="0"
     id="path40" />
  <path
     d="m 678.62,607.57046 c 0,0.83002 -0.66998,1.5 -1.5,1.5 H 1.5 c -0.83,0 -1.5,-0.66998 -1.5,-1.5 0,-0.83002 0.67,-1.5 1.5,-1.5 h 675.62 c 0.83002,0 1.5,0.66998 1.5,1.5 z"
     fill="#2f2e43"
     stroke-width="0"
     id="path42" />
</svg>
